<svg width="33" height="16" viewBox="0 0 33 16" fill="none" xmlns="http://www.w3.org/2000/svg">
<path d="M8.29102 9.7168H4.54102C4.56706 10.9863 4.87305 11.9629 5.45898 12.6465C6.04492 13.3301 6.875 13.6719 7.94922 13.6719C8.70443 13.6719 9.41406 13.5612 10.0781 13.3398L10.2734 14.9023C9.49219 15.0977 8.71094 15.1953 7.92969 15.1953C6.3151 15.1953 5.04232 14.7201 4.11133 13.7695C3.18685 12.8125 2.70508 11.4616 2.66602 9.7168H0.927734V8.50586H2.66602V7.16797H0.927734V5.94727H2.66602C2.73112 4.24154 3.22591 2.92318 4.15039 1.99219C5.08138 1.05469 6.33789 0.585938 7.91992 0.585938C8.61003 0.585938 9.39453 0.686849 10.2734 0.888672L10.0781 2.4707C9.36849 2.24284 8.6556 2.12891 7.93945 2.12891C6.87174 2.12891 6.04818 2.46094 5.46875 3.125C4.89583 3.78255 4.58984 4.72331 4.55078 5.94727H8.29102V7.16797H4.54102V8.50586H8.29102V9.7168ZM13.2422 7.87109L13.9648 0.78125H21.25V2.45117H15.498L15.0684 6.32812C15.765 5.91797 16.556 5.71289 17.4414 5.71289C18.737 5.71289 19.7656 6.14258 20.5273 7.00195C21.2891 7.85482 21.6699 9.01042 21.6699 10.4688C21.6699 11.9336 21.2728 13.0892 20.4785 13.9355C19.6908 14.7754 18.5872 15.1953 17.168 15.1953C15.9115 15.1953 14.8861 14.847 14.0918 14.1504C13.2975 13.4538 12.8451 12.4902 12.7344 11.2598H14.4434C14.554 12.0736 14.8438 12.6888 15.3125 13.1055C15.7812 13.5156 16.3997 13.7207 17.168 13.7207C18.0078 13.7207 18.6654 13.4342 19.1406 12.8613C19.6224 12.2884 19.8633 11.4974 19.8633 10.4883C19.8633 9.53776 19.6029 8.77604 19.082 8.20312C18.5677 7.6237 17.8809 7.33398 17.0215 7.33398C16.2337 7.33398 15.6152 7.50651 15.166 7.85156L14.6875 8.24219L13.2422 7.87109ZM32.5586 8.93555C32.5586 11.0514 32.1973 12.6237 31.4746 13.6523C30.752 14.681 29.6224 15.1953 28.0859 15.1953C26.569 15.1953 25.446 14.694 24.7168 13.6914C23.9876 12.6823 23.61 11.1784 23.584 9.17969V6.76758C23.584 4.67773 23.9453 3.125 24.668 2.10938C25.3906 1.09375 26.5234 0.585938 28.0664 0.585938C29.5964 0.585938 30.7227 1.07747 31.4453 2.06055C32.168 3.03711 32.5391 4.54753 32.5586 6.5918V8.93555ZM30.752 6.46484C30.752 4.9349 30.5371 3.82161 30.1074 3.125C29.6777 2.42188 28.9974 2.07031 28.0664 2.07031C27.1419 2.07031 26.4681 2.41862 26.0449 3.11523C25.6217 3.81185 25.4036 4.88281 25.3906 6.32812V9.21875C25.3906 10.7552 25.612 11.8913 26.0547 12.627C26.5039 13.3561 27.181 13.7207 28.0859 13.7207C28.9779 13.7207 29.6387 13.3757 30.0684 12.6855C30.5046 11.9954 30.7324 10.9082 30.752 9.42383V6.46484Z" fill="white"/>
</svg>
